HIERARCHY
ROOT Hips
{
	OFFSET 0.00000 0.00000 0.00000
	CHANNELS 6 Xposition Yposition Zposition Zrotation Yrotation Xrotation 
	JOINT LHipJoint
	{
		OFFSET 0 0 0
		CHANNELS 3 Zrotation Yrotation Xrotation
		JOINT LeftHip
		{
			OFFSET 1.75344 -1.53157 0.77399
			CHANNELS 3 Zrotation Yrotation Xrotation
			JOINT LeftKnee
			{
				OFFSET 2.25415 -6.19323 0.00000
				CHANNELS 3 Zrotation Yrotation Xrotation
				JOINT LeftAnkle
				{
					OFFSET 2.30342 -6.32861 0.00000
					CHANNELS 3 Zrotation Yrotation Xrotation
					JOINT LeftToe
					{
						OFFSET 0.10958 -0.30108 1.49206
						CHANNELS 3 Zrotation Yrotation Xrotation
						End Site
						{
							OFFSET 0.00000 -0.00000 0.77783
						}
					}
				}
			}
		}
	}
	JOINT RHipJoint
	{
		OFFSET 0 0 0
		CHANNELS 3 Zrotation Yrotation Xrotation
		JOINT RightHip
		{
			OFFSET -1.81912 -1.53156 0.77399
			CHANNELS 3 Zrotation Yrotation Xrotation
			JOINT RightKnee
			{
				OFFSET -2.22882 -6.12365 0.00000
				CHANNELS 3 Zrotation Yrotation Xrotation
				JOINT RightAnkle
				{
					OFFSET -2.21943 -6.09785 0.00000
					CHANNELS 3 Zrotation Yrotation Xrotation
					JOINT RightToe
					{
						OFFSET -0.18931 -0.52012 1.59379
						CHANNELS 3 Zrotation Yrotation Xrotation
						End Site
						{
							OFFSET -0.00000 -0.00000 0.84686
						}
					}
				}
			}
		}
	}
	JOINT lowerback
	{
		OFFSET 0 0 0
		CHANNELS 3 Zrotation Yrotation Xrotation
		JOINT Chest
		{
			OFFSET -0.00200 1.66634 -0.14248
			CHANNELS 3 Zrotation Yrotation Xrotation
			JOINT Chest2
			{
				OFFSET -0.00875 1.64542 0.09514
				CHANNELS 3 Zrotation Yrotation Xrotation
				JOINT lowerneck
				{
					OFFSET 0 0 0
					CHANNELS 3 Zrotation Yrotation Xrotation
					JOINT Neck
					{
						OFFSET 0.02257 1.59605 0.00839
						CHANNELS 3 Zrotation Yrotation Xrotation
						JOINT Head
						{
							OFFSET -0.10214 1.57530 -0.23335
							CHANNELS 3 Zrotation Yrotation Xrotation
							End Site
							{
								OFFSET -0.03588 1.60717 -0.08062
							}
						}
					}
				}
				JOINT LeftCollar
				{
					OFFSET 0 0 0
					CHANNELS 3 Zrotation Yrotation Xrotation
					JOINT LeftShoulder
					{
						OFFSET 2.54983 1.10186 0.40078
CHANNELS 3 Zrotation Xrotation Yrotation
						JOINT LeftElbow
						{
OFFSET 0 -4.288400 0.000000
CHANNELS 3 Zrotation Xrotation Yrotation
							JOINT LeftWrist
							{
OFFSET 0 -3.065520 -0.000000
CHANNELS 3 Zrotation Xrotation Yrotation
								JOINT lhand
								{
									OFFSET 0 0 0
CHANNELS 3 Zrotation Xrotation Yrotation
									JOINT LFingers
									{
OFFSET 0 -0.753040 0.000000
CHANNELS 3 Zrotation Xrotation Yrotation
										End Site
										{
OFFSET 0 -0.607120 0.000000
										}
									}
								}
								JOINT LThumb
								{
OFFSET 0 0.000000 0.000000
CHANNELS 3 Zrotation Xrotation Yrotation
									End Site
									{
OFFSET 0 -0.616390 0.616390
									}
								}
							}
						}
					}
				}
				JOINT RightCollar
				{
					OFFSET 0 0 0
					CHANNELS 3 Zrotation Yrotation Xrotation
					JOINT RightShoulder
					{
						OFFSET -2.60909 1.35448 0.21802
CHANNELS 3 Zrotation Xrotation Yrotation
						JOINT RightElbow
						{
OFFSET 0 -4.521720 -0.000000
CHANNELS 3 Zrotation Xrotation Yrotation
							JOINT RightWrist
							{
OFFSET 0 -2.891400 0.000000
CHANNELS 3 Zrotation Xrotation Yrotation
								JOINT rhand
								{
									OFFSET 0 0 0
CHANNELS 3 Zrotation Xrotation Yrotation
									JOINT RFingers
									{
OFFSET 0 -0.680540 0.000000
CHANNELS 3 Zrotation Xrotation Yrotation
										End Site
										{
OFFSET 0 -0.548670 0.000000
										}
									}
								}
								JOINT RThumb
								{
OFFSET 0 0.000000 0.000000
CHANNELS 3 Zrotation Xrotation Yrotation
									End Site
									{
OFFSET 0 -0.557050 0.557050
									}
								}
							}
						}
					}
				}
			}
		}
	}
}
MOTION
Frames: 7
Frame Time: 0.008333333333333333
8.243338 15.293749 -38.469964 8.967490 11.306396 360.979843 0.000000 0.000000 0.000000 -25.319104 -17.215538 -6.821137 2.384837 9.625428 27.771932 0.650364 -4.209576 -14.389219 2.672400 -10.144895 -29.447141 0.000000 0.000000 0.000000 23.111646 24.392409 3.512823 -3.248233 -11.086387 32.571806 -0.457285 -23.784010 -36.090761 -0.109356 -2.131045 5.867984 4.876925 -1.861733 9.172481 3.825376 -1.555276 -3.123208 1.580539 -0.891849 -8.518029 4.042460 2.046208 -11.146966 -15.385140 3.881195 8.577021 -5.195998 1.125972 4.817733 0.000000 0.000000 0.000000 7.061368 18.153098 10.055619 18.482958 -28.771133 4.779432 7.507695 11.671716 23.111409 0.000000 0.000000 0.000000 -7.125000 0.000000 0.000000 -13.393264 7.204166 -11.947283 0.000000 0.000000 0.000000 -1.631446 -2.414416 -4.580711 -16.710870 -26.474697 -3.957777 -8.252418 24.975321 48.690238 0.000000 0.000000 0.000000 7.125000 0.000000 0.000000 55.079941 72.527928 -39.086635
8.296595 15.303742 -38.411028 9.692950 9.634829 360.910943 0.000000 0.000000 0.000000 -25.994465 -15.272098 -7.371783 2.472914 9.788469 28.294433 0.595859 -4.486314 -13.750024 3.450259 -11.375274 -33.574840 0.000000 0.000000 0.000000 21.147790 22.728454 1.730548 -3.514988 -11.485396 33.934980 -0.622977 -21.115846 -33.805351 -0.057315 -1.537903 4.230292 4.637523 -1.629283 9.656414 3.667532 -1.244259 -3.278891 1.517433 -0.738237 -8.962612 4.786940 2.414185 -9.611539 -15.171711 4.274017 8.708047 -5.227673 1.414726 4.638244 0.000000 0.000000 0.000000 8.051355 19.104364 5.698937 18.497841 -28.789832 4.786599 5.686965 14.283438 23.973416 0.000000 0.000000 0.000000 -7.125000 0.000000 0.000000 -14.510205 6.529498 -13.208714 0.000000 0.000000 0.000000 -2.648358 -0.312323 -9.083735 -15.323209 -24.594337 -3.359374 4.369704 23.399717 58.045693 0.000000 0.000000 0.000000 7.125000 0.000000 0.000000 88.832154 70.733699 -68.313277
8.351819 15.290204 -38.351479 10.546677 8.718616 360.572154 0.000000 0.000000 0.000000 -26.657213 -13.944039 -7.088859 2.526023 9.885101 28.605475 0.426896 -7.359128 -11.970496 2.012707 -8.881713 -25.433242 0.000000 0.000000 0.000000 19.707181 21.840496 0.261343 -4.043493 -12.217344 36.506270 -0.636670 -20.039685 -32.629115 -0.000375 0.026032 -0.071592 4.430425 -1.714915 9.730365 3.544989 -1.407581 -2.997680 1.522245 -0.806465 -8.696559 4.585782 2.748733 -9.086279 -14.735403 4.786536 9.281239 -5.022705 1.683084 4.757702 0.000000 0.000000 0.000000 8.226031 19.112091 -1.898377 19.158007 -29.614498 5.108759 3.933779 13.676501 22.135167 0.000000 0.000000 0.000000 -7.125000 0.000000 0.000000 -15.599317 8.439958 -13.670442 0.000000 0.000000 0.000000 -5.498539 1.748005 -10.320269 -15.398926 -24.698782 -3.390890 2.789023 25.384155 59.021634 0.000000 0.000000 0.000000 7.125000 0.000000 0.000000 91.142767 71.243838 -71.472624
8.383525 15.258625 -38.301140 12.334373 8.912398 360.427344 0.000000 0.000000 0.000000 -28.334967 -11.725244 -7.677051 2.540659 9.911342 28.690319 0.269419 -8.815395 -10.377798 3.209516 -11.026288 -32.369102 0.000000 0.000000 0.000000 17.801712 21.282997 -1.201575 -4.744709 -13.090294 39.707709 -0.773974 -19.087155 -32.407128 -0.179371 -2.664301 7.349359 3.677323 -2.084782 9.727346 2.831461 -2.058748 -3.104500 1.299860 -1.106027 -8.809673 4.032674 2.821502 -7.731300 -13.874861 4.946683 9.981035 -4.658169 1.816230 4.714057 0.000000 0.000000 0.000000 7.882886 17.891272 -6.598417 19.455124 -29.980265 5.256362 -1.848945 16.459433 24.085244 0.000000 0.000000 0.000000 -7.125000 0.000000 0.000000 -19.005095 6.917641 -17.600775 0.000000 0.000000 0.000000 -8.436331 5.882365 -6.500174 -17.706861 -27.779545 -4.412100 -4.117718 24.117219 58.453468 0.000000 0.000000 0.000000 7.125000 0.000000 0.000000 88.727862 73.568664 -71.537371
8.407112 15.179759 -38.240989 13.662777 10.056593 360.039753 0.000000 0.000000 0.000000 -29.579733 -9.657986 -8.386932 2.790515 10.347896 30.110849 0.003717 -11.889766 -8.393850 2.306439 -9.470390 -27.283367 0.000000 0.000000 0.000000 18.104550 22.123445 0.933784 -4.811009 -13.167772 39.999761 -0.026139 -23.694985 -33.516467 -0.214331 -2.976918 8.214640 3.394759 -2.602389 9.032441 2.338637 -2.874249 -2.885393 1.028797 -1.500323 -8.183062 3.690471 2.664556 -7.422337 -14.049577 4.977396 11.498848 -4.673023 1.761716 5.122007 0.000000 0.000000 0.000000 5.691276 13.948961 -7.662310 18.358290 -28.613295 4.719714 -2.911762 19.447204 25.340640 0.000000 0.000000 0.000000 -7.125000 0.000000 0.000000 -19.563290 5.778295 -18.642107 0.000000 0.000000 0.000000 -12.074437 8.643690 -4.823956 -19.420172 -29.936783 -5.239209 -2.160671 14.356935 59.327010 0.000000 0.000000 0.000000 7.125000 0.000000 0.000000 91.656523 72.915851 -73.840799
8.465122 15.158751 -38.206458 13.680133 12.497950 359.516993 0.000000 0.000000 0.000000 -29.630075 -9.447560 -9.450080 3.299215 11.164132 32.835826 -0.383777 -14.135535 -4.437017 0.593548 -4.930518 -13.710917 0.000000 0.000000 0.000000 19.221777 21.983175 3.774972 -4.471424 -12.762546 38.486137 0.041834 -25.708102 -35.870959 -0.467007 -4.381506 12.152805 5.122919 -3.469044 8.501943 2.344054 -3.846471 -3.021275 0.210648 -2.059504 -8.162834 2.919283 2.407602 -6.427084 -14.293362 4.950492 13.147557 -4.652330 1.672318 5.440268 0.000000 0.000000 0.000000 1.546238 9.250813 -7.255909 16.840974 -26.647509 4.015835 1.673842 20.939069 30.248298 0.000000 0.000000 0.000000 -7.125000 0.000000 0.000000 -16.854374 0.828629 -17.382317 0.000000 0.000000 0.000000 -17.089485 11.755103 -1.451238 -20.108605 -30.772938 -5.586838 4.714616 3.737353 66.217167 0.000000 0.000000 0.000000 7.125000 0.000000 0.000000 95.219995 -51.354195 92.243761
8.498728 15.185446 -38.181194 13.711169 14.893092 359.235035 0.000000 0.000000 0.000000 -29.396497 -8.638896 -11.359365 3.765910 11.842269 35.176172 -0.736349 -15.735282 0.710030 0.132167 -2.319102 -6.389842 0.000000 0.000000 0.000000 19.574668 20.571783 5.389806 -4.153500 -12.361837 37.024379 0.159028 -26.604168 -36.474666 -0.525780 -4.646569 12.903244 6.156967 -4.001230 8.279762 2.414000 -4.412522 -3.665113 -0.168075 -2.400867 -8.843459 3.271704 2.053733 -5.035985 -14.962450 4.798689 15.375624 -4.992473 1.541525 5.887145 0.000000 0.000000 0.000000 -1.624639 6.399154 -14.811484 16.430367 -26.100562 3.833461 4.089710 19.486131 27.001200 0.000000 0.000000 0.000000 -7.125000 0.000000 0.000000 -15.459734 3.737925 -14.984555 0.000000 0.000000 0.000000 -22.720223 15.239893 3.480335 -19.170115 -29.629408 -5.114731 8.927864 1.191743 64.083941 0.000000 0.000000 0.000000 7.125000 0.000000 0.000000 85.014435 -69.667232 106.336610
